<svg id="Group_93" data-name="Group 93" xmlns="http://www.w3.org/2000/svg" xmlns:xlink="http://www.w3.org/1999/xlink" width="261.064" height="30.621" viewBox="0 0 261.064 30.621">
  <defs>
    <clipPath id="clip-path">
      <rect id="Rectangle_75" data-name="Rectangle 75" width="261.064" height="30.621" fill="none"/>
    </clipPath>
  </defs>
  <g id="Group_92" data-name="Group 92" transform="translate(0 0)" clip-path="url(#clip-path)">
    <path id="Path_110" data-name="Path 110" d="M247.568,27.8a10.99,10.99,0,0,0-1.226-.174q-2.385-.081-4.772-.1c-.082,0-.194.243-.234.389-.015.053.135.216.219.222,1.644.13,3.288.244,4.933.362a5.235,5.235,0,0,0,1.151.331c1,.056,2.006,0,3.006.053,1.939.095,3.874.265,5.814.336a41.534,41.534,0,0,1,5.635.335c1.111.133,2.22.307,3.334.391,2.116.159,4.235.262,6.352.4.29.02.572.147.863.193a4.967,4.967,0,0,0,.877.068c.259-.007.433-.136.325-.5-1.076-.159-2.173-.355-3.279-.478-1.581-.176-3.184-.2-4.746-.477a18.914,18.914,0,0,0-3.7-.254c-1.867-.229-3.729-.5-5.6-.675-1.991-.183-3.992-.267-5.988-.4a3.355,3.355,0,0,1-.876-.092,3.611,3.611,0,0,0-2.088.058M40.5,28.749c-1.351.091-2.7.157-4.051.277-2.056.182-4.108.4-6.162.607-1.468.145-2.939.268-4.4.446a14.323,14.323,0,0,0-1.669.4,6.422,6.422,0,0,0,2.307.106,28.488,28.488,0,0,1,4.773-.308c.472-.017.944-.056,1.415-.1.881-.075,1.762-.219,2.644-.226a25.471,25.471,0,0,0,5.118-.415c.87-.082,1.739-.216,2.609-.235,3.155-.07,6.316-.006,9.458-.39a2.345,2.345,0,0,0,2.485-.066c.458-.009.918,0,1.375-.029,1.085-.073,2.169-.166,3.253-.251a6.689,6.689,0,0,0,3.777.033c.052-.016.091-.073.136-.111.518,0,1.037.03,1.552,0,1.261-.073,2.521-.172,3.781-.26a2.131,2.131,0,0,0,.653.239c1.654.019,3.308.023,4.962-.009a2.5,2.5,0,0,0,.8-.319l2.832-.03c.413.026.827.075,1.24.074q9.071-.021,18.142-.057c.414,0,.829-.032,1.242-.062,1-.073,2-.221,3-.223q30.148-.046,60.3-.068c.769,0,1.539-.042,2.306-.091s1.529-.189,2.294-.19q16.452-.016,32.905,0a6.643,6.643,0,0,1,1.419.039,21.409,21.409,0,0,0,4.605.243q5.958.032,11.917.028c.649,0,1.3-.066,1.947-.1l3.549.055a1.355,1.355,0,0,0,1.137.375c2.013.008,4.026.027,6.038.01a4.346,4.346,0,0,0,1.011-.255,19.106,19.106,0,0,1,2.6.076,27.3,27.3,0,0,0,4.5.205.677.677,0,0,0,1.07.022,4.958,4.958,0,0,0,.82-.26c.2-.1.165-.55-.021-.6a5.411,5.411,0,0,0-1.033-.185c-3.016-.141-6.034-.266-9.05-.4-.237-.01-.474-.016-.711-.029-3.485-.2-6.969-.424-10.456-.58-3.786-.169-7.577-.041-11.366-.329-3.479-.264-6.979-.159-10.472-.353-5.5-.306-11.011-.062-16.52-.346-6.918-.356-13.862.158-20.783-.4-7.58.108-15.161-.268-22.743.234-3.306.218-6.637.042-9.955.1s-6.627.2-9.94.3c-3.49.108-6.98.032-10.475.277-3.834.269-7.693.139-11.538.387-3.13.2-6.269.109-9.408.322-4.606.312-9.231.34-13.848.49-.592.019-1.185.024-1.776.065-2.537.174-5.073.383-7.612.532-1.419.084-2.849.006-4.264.125-3.42.289-6.841.534-10.273.664-2.422.091-4.84.321-7.26.49a1.357,1.357,0,0,0-.174.037M86.073,3.943c.593.07.571.489.674.807,1.421,4.394,2.829,8.793,4.269,13.182.178.542.191,1.187.715,1.561a26.405,26.405,0,0,0,6.878-.164.661.661,0,0,0,.089-.153q2.361-9.021,4.708-18.046a4.138,4.138,0,0,0,.009-.917c-.763,0-1.409-.024-2.052.007a4.2,4.2,0,0,0-1.976.21C98.733,3,98.07,5.573,97.421,8.151c-.641,2.547-1.226,5.109-1.993,7.794a3.04,3.04,0,0,1-.835-1.7C93.249,10.133,91.937,6.014,90.607,1.9c-.177-.547-.4-1.082-.573-1.56A31.1,31.1,0,0,0,83,.436a3.4,3.4,0,0,0-.2.47q-2.3,8.855-4.579,17.715a3.905,3.905,0,0,0-.009.892h3.857c.842-2.54,1.346-5.154,2.029-7.717.7-2.612,1.319-5.243,1.97-7.854M143.6,5.789a4.516,4.516,0,0,0,.5-2.529A2.5,2.5,0,0,0,141.861.514a16.673,16.673,0,0,0-1.937-.258A32.916,32.916,0,0,0,131.772.4a5.787,5.787,0,0,0-4.34,2.768,8.7,8.7,0,0,0-1.279,4.562,2.537,2.537,0,0,0,2.262,2.911,23.294,23.294,0,0,0,3.156.483c1.592.146,3.191.226,4.788.306,1.5.075,1.868.874,1.64,2.112a6.171,6.171,0,0,1-.2.864,2.879,2.879,0,0,1-2.385,2.107,21.3,21.3,0,0,1-5.667.086c-1.222-.118-1.568-.66-1.531-1.941.012-.39,0-.781,0-1.28a32.076,32.076,0,0,0-3.687.032,6.108,6.108,0,0,0-.564,3.714,2.448,2.448,0,0,0,1.786,2.006,6.52,6.52,0,0,0,.865.185,42.457,42.457,0,0,0,9.219.236,9.01,9.01,0,0,0,1.575-.271,5.256,5.256,0,0,0,3.622-2.623,12.015,12.015,0,0,0,1.388-3.821c.35-1.975-.027-3.95-2.981-4.23-1.649-.156-3.3-.263-4.953-.4-.884-.075-1.777-.113-2.646-.273a1.389,1.389,0,0,1-1.237-1.935,7.472,7.472,0,0,1,.552-1.489,2.109,2.109,0,0,1,1.479-1.182,14.063,14.063,0,0,1,5.646-.166c1.211.22,1.4.516,1.455,1.822.01.224,0,.449,0,.779a34.522,34.522,0,0,0,3.859.03m113.041,7.559a6.217,6.217,0,0,0-.628,2.967,2.746,2.746,0,0,0,2.48,2.954,42.435,42.435,0,0,0,9.571.264,8.115,8.115,0,0,0,1.571-.289A4.637,4.637,0,0,0,272,18.067a8.983,8.983,0,0,0,2.552-6.962,2.475,2.475,0,0,0-1.913-2.31c-.282-.085-.579-.116-.866-.187a22.439,22.439,0,0,0-4.416-.4c-1.121-.049-2.24-.188-3.355-.32a1.249,1.249,0,0,1-1.122-.757c-.4-1.08.113-3.338,1.81-3.787a12.361,12.361,0,0,1,5.81-.168A1.393,1.393,0,0,1,271.8,4.6c.011.339.075.676.121,1.072a9.776,9.776,0,0,0,3.916-.105c.14-.453.277-.844.378-1.244a3.458,3.458,0,0,0,.078-.7A2.719,2.719,0,0,0,273.838.477a27.647,27.647,0,0,0-3.527-.371c-1.42-.059-2.848-.056-4.266.019a13.963,13.963,0,0,0-2.975.446,5.748,5.748,0,0,0-2.211,1.072,7.77,7.77,0,0,0-2.575,6.707,2.225,2.225,0,0,0,1.836,2.137,25.347,25.347,0,0,0,2.956.582c1.589.168,3.188.28,4.786.311,1.928.037,2.774.582,2.037,2.967-.017.056-.039.112-.06.167a2.812,2.812,0,0,1-2.322,1.948,20.976,20.976,0,0,1-5.841.016,1.387,1.387,0,0,1-1.338-1.41c-.049-.514-.039-1.034-.057-1.613a9.419,9.419,0,0,0-1.133-.152c-.822-.006-1.643.026-2.5.044M190.528,6.687a29.442,29.442,0,0,0,.381-3.333A2.869,2.869,0,0,0,188.547.425a10.785,10.785,0,0,0-2.276-.339c-1.6-.045-3.2-.047-4.8.021a17.042,17.042,0,0,0-5.037.964A5.753,5.753,0,0,0,173.207,3.7a15.111,15.111,0,0,0-1.42,3.236c-.628,2.279-1.1,4.6-1.614,6.911a6.2,6.2,0,0,0-.138,1.41,3.831,3.831,0,0,0,3.113,3.989c.229.059.467.08.7.118a31.11,31.11,0,0,0,7.616.063,13.2,13.2,0,0,0,3.627-.806,4.906,4.906,0,0,0,2.153-1.51,7.385,7.385,0,0,0,1.621-4.466,6.943,6.943,0,0,0-.731-.087c-1.058-.009-2.116,0-3.227,0-.206.642-.365,1.2-.566,1.749a2.694,2.694,0,0,1-2.178,1.846,17.006,17.006,0,0,1-5.13.175c-2.2-.244-2.754-1.032-2.28-3.231.411-1.907.914-3.8,1.41-5.683a13.05,13.05,0,0,1,.7-2.007,3.016,3.016,0,0,1,2.4-1.892,8.377,8.377,0,0,1,1.047-.178c1.362-.026,2.724-.027,4.085-.02a3.634,3.634,0,0,1,.876.121,1.279,1.279,0,0,1,1.131,1.53c-.013.568-.343,1.148.015,1.718Zm-44.49-3.326c2.149.2,4.1-.05,6.238.183-.565,2.755-1.35,5.341-1.993,7.958s-1.417,5.231-2.02,7.949a20.447,20.447,0,0,0,4.253.059c1.515-5.29,2.714-10.648,4.2-15.952,2.2-.291,4.333.043,6.493-.209.234-.782.461-1.51.664-2.244a5.025,5.025,0,0,0,.078-.784,30.812,30.812,0,0,0-4.277-.1c-1.421-.026-2.844-.006-4.266-.006s-2.844,0-4.266,0-2.821.014-4.249.021a11.627,11.627,0,0,0-.856,3.127m20.006-3.2c-.693,2.171-1.146,4.309-1.72,6.411q-.887,3.253-1.677,6.533c-.506,2.1-1.2,4.169-1.54,6.388a21.192,21.192,0,0,0,4.184,0c1.7-6.416,3.343-12.758,4.977-19.189a26.427,26.427,0,0,0-4.225-.14" transform="translate(-15.231 -0.034)" fill="#2b2b2b"/>
    <path id="Path_111" data-name="Path 111" d="M177.627,4.181c-.651,2.611-1.274,5.242-1.97,7.854-.683,2.563-1.187,5.177-2.029,7.717h-3.857a3.926,3.926,0,0,1,.009-.892Q172.056,10,174.36,1.144a3.416,3.416,0,0,1,.2-.47,31.1,31.1,0,0,1,7.033-.1c.177.479.4,1.013.573,1.56,1.33,4.113,2.642,8.232,3.987,12.339a3.041,3.041,0,0,0,.835,1.7c.767-2.685,1.352-5.247,1.993-7.794.649-2.578,1.312-5.153,1.967-7.721a4.2,4.2,0,0,1,1.976-.21c.643-.03,1.289-.007,2.052-.007a4.139,4.139,0,0,1-.009.917q-2.341,9.027-4.708,18.046a.648.648,0,0,1-.089.153,26.4,26.4,0,0,1-6.878.164c-.524-.374-.537-1.02-.715-1.561-1.439-4.389-2.847-8.788-4.269-13.182-.1-.318-.081-.737-.674-.807" transform="translate(-106.785 -0.272)" fill="#f7f7f7"/>
    <path id="Path_112" data-name="Path 112" d="M87.216,70.345c-1.084.085-2.168.178-3.253.251-.457.031-.916.02-1.374.029a2.257,2.257,0,0,0-2.485.066c-3.142.384-6.3.319-9.458.39-.871.02-1.74.154-2.61.236q.014-.4.03-.793a1.354,1.354,0,0,1,.174-.036c2.42-.169,4.838-.4,7.26-.49,3.431-.129,6.852-.375,10.272-.664,1.415-.119,2.845-.041,4.264-.125,2.539-.15,5.075-.358,7.612-.533.591-.04,1.184-.046,1.776-.065,4.617-.15,9.243-.177,13.849-.49,3.139-.213,6.278-.119,9.408-.322,3.845-.249,7.7-.119,11.538-.387,3.5-.245,6.985-.169,10.475-.277,3.313-.1,6.626-.24,9.94-.3s6.649.115,9.956-.1c7.581-.5,15.163-.125,22.743-.234,6.921.554,13.865.04,20.783.4,5.509.284,11.022.04,16.52.346,3.493.194,6.993.089,10.472.353,3.789.288,7.581.16,11.366.329,3.487.156,6.971.384,10.456.58.237.013.474.019.711.029,3.017.13,6.034.255,9.05.4a5.412,5.412,0,0,1,1.033.186c.186.046.217.5.021.6a4.942,4.942,0,0,1-.82.26.636.636,0,0,0-1.071-.022,27.3,27.3,0,0,1-4.5-.206,19.168,19.168,0,0,0-2.6-.077,1.547,1.547,0,0,0-1.309-.4c-1.9,0-3.8-.022-5.693,0a5.68,5.68,0,0,0-1.183.27l-3.549-.055c-.266-.634-.832-.572-1.361-.573-2.9-.008-5.806,0-8.708-.018-.591,0-1.182-.045-1.77-.092-.881-.071-1.759-.229-2.639-.234-4.443-.028-8.886-.014-13.329-.028-.648,0-1.3-.068-1.944-.123-.7-.06-1.407-.2-2.11-.2q-29.058-.016-58.115,0c-.531,0-1.062.05-1.592.1-.822.072-1.641.226-2.462.229-6.22.024-12.441.018-18.661.026a7.038,7.038,0,0,0-1.769.075,13.655,13.655,0,0,1-3.529.265c-2.37.009-4.739,0-7.109.012a5.446,5.446,0,0,0-1.415.062,13.735,13.735,0,0,1-3.706.276c-3.021.011-6.042.009-9.063.018a6.654,6.654,0,0,0-1.414.073c-.236.053-.415.361-.62.553l-2.832.03a2.643,2.643,0,0,0-.8-.287c-1.561-.026-3.124-.03-4.684.01a2.984,2.984,0,0,0-.933.366c-1.26.089-2.52.188-3.781.26-.516.03-1.035,0-1.552,0a6.213,6.213,0,0,0-3.777-.036c-.052.018-.09.075-.135.114" transform="translate(-42.8 -41.81)" fill="#1e9a15"/>
    <path id="Path_113" data-name="Path 113" d="M528.5,19.622a12.383,12.383,0,0,1,.167-1.248q2.106-8.254,4.233-16.5c.412-1.592.442-1.609,2.023-1.614,3.256-.011,6.514-.056,9.768.026a14.121,14.121,0,0,1,3.656.6,3.712,3.712,0,0,1,2.869,3.977,5.146,5.146,0,0,1-.076,1.237,43.12,43.12,0,0,1-2.1,7.509,20.583,20.583,0,0,1-1.626,2.945,6.236,6.236,0,0,1-4.35,2.806,23.045,23.045,0,0,1-3.346.329c-3.078.044-6.157.019-9.235.012-.583,0-1.166-.044-1.985-.077m4.992-3.16c1.655.071,3.071.062,4.484.032,1.062-.023,2.121-.139,3.182-.219a3.9,3.9,0,0,0,3.369-2.522,28.2,28.2,0,0,0,2.047-7.338c.3-1.7-.282-2.4-1.942-2.8a5.489,5.489,0,0,0-1.226-.181c-1.956-.018-3.912-.013-5.869,0a3.5,3.5,0,0,0-.731.175c-1.168,4.169-2.241,8.343-3.315,12.853" transform="translate(-332.466 -0.147)" fill="#05ab05"/>
    <path id="Path_114" data-name="Path 114" d="M589.118,19.591a1.933,1.933,0,0,1,0-1.65q1.593-6.183,3.185-12.366c.309-1.2.6-2.409.918-3.609.134-.508.315-1,.5-1.572.51-.045.971-.12,1.432-.122,3.254-.01,6.508-.036,9.761.013a14.657,14.657,0,0,1,3.159.388,4.2,4.2,0,0,1,3.415,5.315c-.418,2.083-.977,4.142-1.553,6.189a16.5,16.5,0,0,1-1.994,4.143,6.5,6.5,0,0,1-4.063,2.941,13.573,13.573,0,0,1-3.151.432c-3.431.053-6.862.025-10.294.015-.46,0-.92-.082-1.312-.119m4.9-3.205a34.39,34.39,0,0,0,5.057.118,25.67,25.67,0,0,0,2.644-.244,3.6,3.6,0,0,0,3.014-2.191,10.736,10.736,0,0,0,.752-1.8c.518-1.944.978-3.9,1.454-5.859a2.655,2.655,0,0,0,.06-.529,1.893,1.893,0,0,0-1.349-2.059,8.777,8.777,0,0,0-2.263-.371c-1.658-.055-3.319-.03-4.978-.014a8.811,8.811,0,0,0-1.139.149,110.032,110.032,0,0,0-3.253,12.8" transform="translate(-370.479 -0.161)" fill="#05ab05"/>
    <path id="Path_115" data-name="Path 115" d="M59.829.479h2.7c2.605,0,5.21-.017,7.815.01A23.3,23.3,0,0,1,73.175.7a6.53,6.53,0,0,1,1.7.477,2.52,2.52,0,0,1,1.608,2.172A10.2,10.2,0,0,1,74.84,9.76a3.668,3.668,0,0,1-1.792,1.4c-.42.176-.845.341-1.236.5.016.163,0,.238.027.25,1.88,1.014,2.19,1.636,1.735,3.684-.243,1.1-.547,2.179-.835,3.265-.075.283-.188.557-.3.884a19.672,19.672,0,0,1-4.134.013,8.316,8.316,0,0,1,.127-1.07c.247-.974.559-1.933.786-2.911a1.661,1.661,0,0,0-1.49-2.3c-.174-.034-.351-.058-.527-.08a44.093,44.093,0,0,0-6.648.1c-.742,1.984-1.006,4.17-1.794,6.313a23.5,23.5,0,0,1-3.869-.057c.089-1.293,4.2-17.367,4.94-19.263m1.611,9.729c2.3,0,4.355.011,6.414-.01a7.085,7.085,0,0,0,1.218-.207,2.775,2.775,0,0,0,2.2-1.841A12.24,12.24,0,0,0,71.9,5.588c.14-1.06-.259-1.553-1.295-1.731A12.55,12.55,0,0,0,68.674,3.7c-1.474-.023-2.948-.016-4.422,0-.4,0-.795.069-1.236.11-.565,2.1-1.186,4.107-1.576,6.4" transform="translate(-34.529 -0.298)" fill="#f7f8f8"/>
    <path id="Path_116" data-name="Path 116" d="M121.932,19.8c-1.525-.166-3.052-.318-4.575-.509a5.779,5.779,0,0,1-1.188-.343A3.124,3.124,0,0,1,114,15.989a7.464,7.464,0,0,1,.117-2.295c.607-2.406,1.23-4.815,2.013-7.167a18.5,18.5,0,0,1,1.773-3.46A5.1,5.1,0,0,1,120.959.773a16.145,16.145,0,0,1,3.118-.656,27.684,27.684,0,0,1,7.609.334C134.5,1,135.65,2.56,135.2,5.383a45.545,45.545,0,0,1-2.155,8.229,16.341,16.341,0,0,1-1.549,2.981,5.4,5.4,0,0,1-3.219,2.359,16.575,16.575,0,0,1-4.195.674c-.71.019-1.421,0-2.132,0l-.014.167M126.5,3.164c-.781.043-1.611.066-2.436.141a3.851,3.851,0,0,0-3.548,2.773c-.077.223-.148.45-.208.678-.546,2.058-1.106,4.113-1.623,6.178a6.544,6.544,0,0,0-.159,1.586c0,1.214.429,1.7,1.659,1.887a17.416,17.416,0,0,0,5.311-.062,3.475,3.475,0,0,0,2.9-2.08,34.469,34.469,0,0,0,2.359-8.526c.215-1.572-.464-2.276-2.076-2.469-.7-.084-1.418-.072-2.177-.106" transform="translate(-71.692 0)" fill="#f8f9f9"/>
    <path id="Path_117" data-name="Path 117" d="M245.224,19.81c-1.525-.167-3.053-.307-4.573-.514a5.382,5.382,0,0,1-1.515-.476,2.8,2.8,0,0,1-1.7-2.133,7.348,7.348,0,0,1-.114-2.109,37.359,37.359,0,0,1,2.629-9.366A7.545,7.545,0,0,1,246.506.237a25.56,25.56,0,0,1,9.513.51,3.121,3.121,0,0,1,2.494,3.067,3.361,3.361,0,0,1,.024.532,11.253,11.253,0,0,1-.177,1.942c-.6,2.349-1.223,4.691-1.9,7.017a13.738,13.738,0,0,1-.995,2.271,6.492,6.492,0,0,1-5.1,3.7c-1.169.171-2.348.28-3.525.383-.529.046-1.065.007-1.6.007l-.014.147M249.87,3.175c-.855.047-1.685.067-2.511.145a3.8,3.8,0,0,0-3.532,2.787c-.073.225-.185.439-.244.668q-.841,3.269-1.664,6.542a4.762,4.762,0,0,0-.133.877c-.088,1.454.411,2.048,1.881,2.255a19.72,19.72,0,0,0,4.613-.006,3.984,3.984,0,0,0,3.778-2.985c.707-2.383,1.336-4.789,2-7.186a2.262,2.262,0,0,0,.057-.351,2.055,2.055,0,0,0-1.958-2.613c-.759-.11-1.536-.093-2.283-.132" transform="translate(-149.269 -0.015)" fill="#f8f9f9"/>
    <path id="Path_118" data-name="Path 118" d="M312.639,5.821a34.427,34.427,0,0,1-3.859-.03c0-.33.008-.555,0-.779-.056-1.306-.244-1.6-1.455-1.822a14.062,14.062,0,0,0-5.645.166,2.109,2.109,0,0,0-1.48,1.181,7.475,7.475,0,0,0-.552,1.49,1.389,1.389,0,0,0,1.237,1.935c.869.16,1.762.2,2.646.273,1.651.14,3.3.247,4.953.4,2.954.28,3.331,2.254,2.981,4.229a12.017,12.017,0,0,1-1.389,3.821,5.255,5.255,0,0,1-3.622,2.622,9.013,9.013,0,0,1-1.575.271,42.433,42.433,0,0,1-9.219-.236,6.525,6.525,0,0,1-.865-.185,2.449,2.449,0,0,1-1.786-2.006,6.11,6.11,0,0,1,.565-3.714,32.16,32.16,0,0,1,3.687-.032c0,.5.01.89,0,1.28-.037,1.281.308,1.823,1.53,1.941a21.3,21.3,0,0,0,5.667-.086,2.878,2.878,0,0,0,2.385-2.107,6.107,6.107,0,0,0,.2-.864c.228-1.239-.139-2.037-1.64-2.112-1.6-.08-3.2-.161-4.789-.306a23.313,23.313,0,0,1-3.156-.483,2.537,2.537,0,0,1-2.261-2.911A8.7,8.7,0,0,1,296.468,3.2a5.786,5.786,0,0,1,4.34-2.768A32.931,32.931,0,0,1,308.96.288,16.679,16.679,0,0,1,310.9.546a2.5,2.5,0,0,1,2.237,2.746,4.519,4.519,0,0,1-.5,2.529" transform="translate(-184.267 -0.066)" fill="#f7f9f9"/>
    <path id="Path_119" data-name="Path 119" d="M480.608,19.628a21.9,21.9,0,0,1-4.253-.309c-2.59-.563-3.651-1.95-3.436-4.719a12.048,12.048,0,0,1,.4-2.271c.521-1.883,1.045-3.768,1.679-5.614a18.137,18.137,0,0,1,1.44-3.044A6.141,6.141,0,0,1,480.554.54a19.206,19.206,0,0,1,3.326-.48,24.755,24.755,0,0,1,6.546.34c.46.107.922.211,1.378.336a3.155,3.155,0,0,1,2.372,2.99,6.49,6.49,0,0,1-.068,2.122,49.78,49.78,0,0,1-2.4,8.537c-.162.381-.341.756-.53,1.123a6.907,6.907,0,0,1-4.927,3.714,24.788,24.788,0,0,1-5.643.407m1.118-3.118v-.1c.709,0,1.421.042,2.126-.008a3.946,3.946,0,0,0,3.756-2.749c.393-1.114.782-2.233,1.086-3.372.4-1.482.773-2.975,1.03-4.485a1.888,1.888,0,0,0-1.835-2.482,34.6,34.6,0,0,0-5.128.045,3.686,3.686,0,0,0-3.314,2.794c-.056.168-.117.335-.162.506-.555,2.114-1.118,4.225-1.65,6.344a5.881,5.881,0,0,0-.152,1.4c0,1.267.474,1.825,1.765,1.981.819.1,1.651.087,2.477.124" transform="translate(-297.486 0)" fill="#05ab05"/>
    <path id="Path_120" data-name="Path 120" d="M649.78,13.366c.861-.018,1.682-.05,2.5-.044a9.419,9.419,0,0,1,1.134.152c.018.579.007,1.1.057,1.614a1.387,1.387,0,0,0,1.338,1.41,20.977,20.977,0,0,0,5.841-.016,2.811,2.811,0,0,0,2.322-1.948c.021-.056.042-.111.06-.168.738-2.384-.109-2.929-2.037-2.967-1.6-.031-3.2-.143-4.786-.311a25.27,25.27,0,0,1-2.956-.582,2.224,2.224,0,0,1-1.836-2.137A7.771,7.771,0,0,1,654,1.662,5.747,5.747,0,0,1,656.207.59a13.938,13.938,0,0,1,2.975-.446c1.419-.076,2.846-.078,4.266-.019A27.647,27.647,0,0,1,666.974.5a2.718,2.718,0,0,1,2.453,3.142,3.462,3.462,0,0,1-.078.7c-.1.4-.238.791-.378,1.244a9.776,9.776,0,0,1-3.916.106c-.046-.4-.11-.733-.121-1.072a1.393,1.393,0,0,0-1.3-1.422,12.365,12.365,0,0,0-5.81.168c-1.7.449-2.213,2.708-1.81,3.787a1.25,1.25,0,0,0,1.122.757c1.116.131,2.234.271,3.355.32a22.44,22.44,0,0,1,4.416.4c.287.07.585.1.866.187a2.474,2.474,0,0,1,1.913,2.309,8.984,8.984,0,0,1-2.552,6.963,4.643,4.643,0,0,1-2.359,1.176,8.17,8.17,0,0,1-1.571.289,42.456,42.456,0,0,1-9.571-.264,2.746,2.746,0,0,1-2.479-2.954,6.212,6.212,0,0,1,.628-2.967" transform="translate(-408.367 -0.053)" fill="#05ab05"/>
    <path id="Path_121" data-name="Path 121" d="M437.844,6.686h-4.109c-.359-.57-.028-1.151-.015-1.718a1.28,1.28,0,0,0-1.131-1.53,3.671,3.671,0,0,0-.876-.121c-1.362-.007-2.724-.006-4.086.02a8.387,8.387,0,0,0-1.047.178,3.017,3.017,0,0,0-2.4,1.892,13.023,13.023,0,0,0-.7,2.007c-.5,1.888-1,3.776-1.41,5.683-.474,2.2.083,2.987,2.28,3.231a17.006,17.006,0,0,0,5.13-.175,2.694,2.694,0,0,0,2.178-1.846c.2-.546.36-1.106.566-1.749,1.111,0,2.169,0,3.227,0a7.05,7.05,0,0,1,.731.086,7.387,7.387,0,0,1-1.621,4.466,4.9,4.9,0,0,1-2.153,1.51,13.2,13.2,0,0,1-3.627.806,31.092,31.092,0,0,1-7.616-.063c-.234-.038-.472-.059-.7-.118a3.831,3.831,0,0,1-3.113-3.989,6.223,6.223,0,0,1,.138-1.41c.514-2.309.986-4.632,1.614-6.91A15.113,15.113,0,0,1,420.523,3.7a5.754,5.754,0,0,1,3.231-2.634A17.025,17.025,0,0,1,428.79.106c1.6-.068,3.2-.066,4.8-.021a10.809,10.809,0,0,1,2.276.339,2.869,2.869,0,0,1,2.362,2.93,29.431,29.431,0,0,1-.381,3.333" transform="translate(-262.546 -0.033)" fill="#f8f8f8"/>
    <path id="Path_122" data-name="Path 122" d="M4.845.655C5,.556,5.054.5,5.1.5a115.22,115.22,0,0,1,11.9.152,10.577,10.577,0,0,1,2.25.478,2.486,2.486,0,0,1,1.789,2.025,6.112,6.112,0,0,1,.145,1.582,14.845,14.845,0,0,1-1.378,5.12,5.786,5.786,0,0,1-4.168,3.291,18.324,18.324,0,0,1-3.167.36c-1.717.059-3.438.017-5.157.017H5.644L3.938,19.737H.023a3.645,3.645,0,0,1,.008-.843q2.3-8.946,4.622-17.884A1.867,1.867,0,0,1,4.845.655M6.5,10.145a48.677,48.677,0,0,0,7.027.07,2.788,2.788,0,0,0,2.494-1.965,16.76,16.76,0,0,0,.591-2.042c.331-1.79-.1-2.4-1.954-2.568-2.122-.193-4.252-.068-6.468-.083C7.609,5.809,7.055,7.97,6.5,10.145" transform="translate(0 -0.265)" fill="#f7f9f9"/>
    <path id="Path_123" data-name="Path 123" d="M169.6,72.832c.2-.193.384-.5.62-.553a6.6,6.6,0,0,1,1.413-.073c3.021-.009,6.043-.007,9.064-.018a13.751,13.751,0,0,0,3.706-.276,5.43,5.43,0,0,1,1.415-.062c2.37-.007,4.739,0,7.109-.012a13.639,13.639,0,0,0,3.529-.265,7.036,7.036,0,0,1,1.768-.075c6.22-.008,12.441,0,18.661-.026.821,0,1.641-.158,2.462-.229.529-.046,1.061-.1,1.592-.1q29.057-.008,58.115,0c.7,0,1.406.145,2.11.2.647.055,1.3.121,1.944.123,4.443.014,8.886,0,13.329.028.88.006,1.759.163,2.639.234.589.047,1.18.089,1.771.092,2.9.013,5.805.01,8.708.018.529,0,1.1-.061,1.362.573-.649.035-1.3.1-1.947.1q-5.959,0-11.917-.028a21.433,21.433,0,0,1-4.605-.243,6.642,6.642,0,0,0-1.419-.039q-16.453-.005-32.905,0c-.764,0-1.528.141-2.294.19s-1.537.09-2.306.091q-30.148.034-60.3.068c-1,0-2,.15-3,.223-.414.03-.828.06-1.242.062q-9.071.034-18.142.057c-.413,0-.827-.048-1.24-.074" transform="translate(-106.689 -44.754)" fill="#1a7b14"/>
    <path id="Path_124" data-name="Path 124" d="M352.657,3.6A11.628,11.628,0,0,1,353.513.47c1.428-.007,2.839-.017,4.249-.021s2.844,0,4.266,0,2.845-.021,4.266.006a30.815,30.815,0,0,1,4.277.1,5.068,5.068,0,0,1-.078.783c-.2.734-.43,1.462-.664,2.244-2.16.252-4.289-.083-6.493.208-1.488,5.3-2.686,10.662-4.2,15.952a20.447,20.447,0,0,1-4.253-.059c.6-2.718,1.374-5.318,2.02-7.949s1.427-5.2,1.992-7.958c-2.136-.233-4.089.015-6.238-.183" transform="translate(-221.849 -0.271)" fill="#f4f6f6"/>
    <path id="Path_125" data-name="Path 125" d="M398.219.309a26.427,26.427,0,0,1,4.225.14c-1.635,6.431-3.278,12.773-4.977,19.189a21.192,21.192,0,0,1-4.184,0c.341-2.219,1.035-4.283,1.54-6.388q.788-3.279,1.677-6.533c.573-2.1,1.026-4.239,1.72-6.411" transform="translate(-247.405 -0.186)" fill="#f6f7f7"/>
    <path id="Path_126" data-name="Path 126" d="M639.073,76.286a41.532,41.532,0,0,0-5.635-.335c-1.94-.072-3.876-.242-5.814-.336-1-.049-2.006,0-3.006-.053a5.239,5.239,0,0,1-1.151-.331l1.081-.7a3.608,3.608,0,0,1,2.088-.059,3.353,3.353,0,0,0,.876.092c2,.13,4,.214,5.988.4,1.872.172,3.734.446,5.6.675q-.012.325-.026.649" transform="translate(-392.21 -46.765)" fill="#208019"/>
    <path id="Path_127" data-name="Path 127" d="M40.5,77.415q-.015.4-.03.793a25.493,25.493,0,0,1-5.117.415c-.882.006-1.762.15-2.644.226-.471.04-.943.08-1.415.1a28.488,28.488,0,0,0-4.773.308,6.423,6.423,0,0,1-2.307-.106,14.32,14.32,0,0,1,1.669-.4c1.464-.178,2.935-.3,4.4-.446,2.054-.2,4.107-.424,6.162-.607,1.348-.12,2.7-.187,4.051-.277" transform="translate(-15.231 -48.7)" fill="#1a7b14"/>
    <path id="Path_128" data-name="Path 128" d="M665.542,78.477c.009-.217.017-.433.026-.649a18.889,18.889,0,0,1,3.7.255c1.561.275,3.165.3,4.746.477,1.105.123,2.2.318,3.279.478.108.361-.065.49-.325.5a4.974,4.974,0,0,1-.877-.068c-.291-.046-.572-.174-.862-.193-2.117-.142-4.237-.245-6.352-.4-1.115-.085-2.223-.258-3.334-.391" transform="translate(-418.678 -48.957)" fill="#245f20"/>
    <path id="Path_129" data-name="Path 129" d="M560.151,74.262a5.68,5.68,0,0,1,1.183-.27c1.9-.025,3.8-.006,5.693,0a1.546,1.546,0,0,1,1.309.4,4.319,4.319,0,0,1-1.01.255c-2.013.017-4.026,0-6.039-.01a1.356,1.356,0,0,1-1.136-.375" transform="translate(-352.379 -46.539)" fill="#1a7b14"/>
    <path id="Path_130" data-name="Path 130" d="M615.81,74.392l-1.081.7c-1.644-.118-3.289-.232-4.932-.362-.083-.006-.234-.169-.219-.222.04-.146.152-.389.234-.389q2.386.02,4.772.1a11,11,0,0,1,1.226.175" transform="translate(-383.472 -46.626)" fill="#1e9a15"/>
    <path id="Path_131" data-name="Path 131" d="M144.672,75.349a2.984,2.984,0,0,1,.933-.366c1.561-.04,3.123-.035,4.684-.01a2.648,2.648,0,0,1,.8.287,2.5,2.5,0,0,1-.8.319c-1.654.032-3.308.027-4.962.009a2.13,2.13,0,0,1-.653-.239" transform="translate(-91.01 -47.152)" fill="#1a7b14"/>
    <path id="Path_132" data-name="Path 132" d="M119.746,76.27c.045-.039.083-.1.135-.113a6.213,6.213,0,0,1,3.777.036c-.045.038-.084.1-.136.112a6.694,6.694,0,0,1-3.777-.034" transform="translate(-75.33 -47.734)" fill="#1a7b14"/>
    <path id="Path_133" data-name="Path 133" d="M100.57,77.177a2.257,2.257,0,0,1,2.485-.066,2.346,2.346,0,0,1-2.485.066" transform="translate(-63.266 -48.295)" fill="#1a7b14"/>
    <path id="Path_134" data-name="Path 134" d="M601.355,75.376a.636.636,0,0,1,1.071.022.677.677,0,0,1-1.071-.022" transform="translate(-378.299 -47.24)" fill="#1a7b14"/>
  </g>
</svg>
