<svg xmlns="http://www.w3.org/2000/svg" width="335" height="191" viewBox="0 0 335 191">
  <g id="Group_14" data-name="Group 14" transform="translate(-1414 -1376)">
    <g id="Rectangle_18" data-name="Rectangle 18" transform="translate(1414 1376)" fill="#313131" stroke="#fff" stroke-width="4">
      <rect width="335" height="191" rx="10" stroke="none"/>
      <rect x="2" y="2" width="331" height="187" rx="8" fill="none"/>
    </g>
    <line id="Line_2" data-name="Line 2" y2="186" transform="translate(1581.5 1378.5)" fill="none" stroke="#fff" stroke-width="3"/>
    <g id="Ellipse_5" data-name="Ellipse 5" transform="translate(1543 1433)" fill="none" stroke="#fff" stroke-width="4">
      <circle cx="39" cy="39" r="39" stroke="none"/>
      <circle cx="39" cy="39" r="37" fill="none"/>
    </g>
    <g id="Rectangle_19" data-name="Rectangle 19" transform="translate(1414 1433)" fill="none" stroke="#fff" stroke-width="3">
      <rect width="55" height="78" rx="7" stroke="none"/>
      <rect x="1.5" y="1.5" width="52" height="75" rx="5.5" fill="none"/>
    </g>
    <g id="Rectangle_20" data-name="Rectangle 20" transform="translate(1694 1433)" fill="none" stroke="#fff" stroke-width="3">
      <rect width="55" height="78" rx="4" stroke="none"/>
      <rect x="1.5" y="1.5" width="52" height="75" rx="2.5" fill="none"/>
    </g>
    <g id="Rectangle_21" data-name="Rectangle 21" transform="translate(1414 1452)" fill="none" stroke="#fff" stroke-width="3">
      <rect width="28" height="40" rx="4" stroke="none"/>
      <rect x="1.5" y="1.5" width="25" height="37" rx="2.5" fill="none"/>
    </g>
    <g id="Rectangle_22" data-name="Rectangle 22" transform="translate(1721 1452)" fill="none" stroke="#fff" stroke-width="3">
      <rect width="28" height="40" rx="4" stroke="none"/>
      <rect x="1.5" y="1.5" width="25" height="37" rx="2.5" fill="none"/>
    </g>
  </g>
</svg>
