<svg xmlns="http://www.w3.org/2000/svg" width="27.282" height="27.282" viewBox="0 0 27.282 27.282">
  <path id="Icon_awesome-futbol" data-name="Icon awesome-futbol" d="M27.845,14.2A13.641,13.641,0,1,1,14.2.563,13.641,13.641,0,0,1,27.845,14.2Zm-2.64,0v-.016l-1.434,1.251-3.448-3.218.905-4.64,1.887.169a11.024,11.024,0,0,0-5.539-4.023l.751,1.757L14.2,7.768,10.081,5.484l.751-1.757A11.025,11.025,0,0,0,5.292,7.75l1.9-.169.891,4.64L4.637,15.439,3.2,14.188V14.2a10.919,10.919,0,0,0,2.116,6.49l.424-1.864,4.683.575,2,4.281-1.645.978a11.1,11.1,0,0,0,6.852,0l-1.645-.978,2-4.281,4.683-.575.424,1.864A10.918,10.918,0,0,0,25.2,14.2ZM11.558,18.03,9.913,13.008,14.2,9.9l4.29,3.109L16.864,18.03H11.558Z" transform="translate(-0.563 -0.563)" fill="#079307"/>
</svg>
