<svg xmlns="http://www.w3.org/2000/svg" width="27.046" height="27.046" viewBox="0 0 27.046 27.046">
  <path id="Icon_awesome-basketball-ball" data-name="Icon awesome-basketball-ball" d="M11.576.688A13.443,13.443,0,0,0,4.913,3.622l4.22,4.22A12.145,12.145,0,0,0,11.576.688Zm1.947,11.544,8.61-8.61A13.477,13.477,0,0,0,14.2.563,14.715,14.715,0,0,1,11,9.707ZM3.059,5.475A13.443,13.443,0,0,0,.125,12.139,12.132,12.132,0,0,0,7.279,9.7ZM17.9,16.61a14.757,14.757,0,0,1,9.144-3.2,13.477,13.477,0,0,0-3.059-7.934l-8.61,8.61Zm-4.379-.671-8.61,8.61a13.513,13.513,0,0,0,7.934,3.059,14.757,14.757,0,0,1,3.2-9.144ZM23.987,22.7a13.443,13.443,0,0,0,2.934-6.663,12.193,12.193,0,0,0-7.154,2.443ZM9.144,11.561A14.682,14.682,0,0,1,0,14.762,13.477,13.477,0,0,0,3.059,22.7l8.61-8.61ZM15.47,27.483a13.443,13.443,0,0,0,6.663-2.934l-4.22-4.22A12.206,12.206,0,0,0,15.47,27.483Z" transform="translate(0 -0.563)" fill="#979797"/>
</svg>
