<svg xmlns="http://www.w3.org/2000/svg" width="26.907" height="26.907" viewBox="0 0 26.907 26.907">
  <g id="Icon_ionic-ios-tennisball" data-name="Icon ionic-ios-tennisball" transform="translate(-3.375 -3.375)">
    <path id="Path_4" data-name="Path 4" d="M16.466,31.476a12.328,12.328,0,0,0,.1-1.546,11.715,11.715,0,0,0-3.409-8.3,11.676,11.676,0,0,0-8.305-3.35,12.475,12.475,0,0,0-1.481.091A13.507,13.507,0,0,0,16.466,31.476Z" transform="translate(0 -1.194)" fill="#979797"/>
    <path id="Path_5" data-name="Path 5" d="M15.154,5.065a14.279,14.279,0,0,1,.091-1.585A13.606,13.606,0,0,0,3.459,15.427c.466-.045.931-.071,1.41-.071a13.351,13.351,0,0,1,13.4,13.389,12.368,12.368,0,0,1-.084,1.475A13.523,13.523,0,0,0,30.2,18.422a13.977,13.977,0,0,1-1.649.039A13.352,13.352,0,0,1,15.154,5.065Z" transform="translate(-0.007 -0.008)" fill="#979797"/>
    <path id="Path_6" data-name="Path 6" d="M21.409,13.355a11.715,11.715,0,0,0,8.3,3.409,12.068,12.068,0,0,0,1.746-.129A13.576,13.576,0,0,0,18.123,3.375,12.038,12.038,0,0,0,18,5.057,11.715,11.715,0,0,0,21.409,13.355Z" transform="translate(-1.171)" fill="#979797"/>
    <path id="Path_7" data-name="Path 7" d="M16.313,3.466Z" transform="translate(-1.036 -0.007)" fill="#979797"/>
  </g>
</svg>
