<svg xmlns="http://www.w3.org/2000/svg" width="122.714" height="124.086" viewBox="0 0 122.714 124.086">
  <g id="Layer_2" data-name="Layer 2" transform="translate(-0.016 -0.001)">
    <g id="Layer_1" data-name="Layer 1" transform="translate(0.016 0.001)">
      <path id="Path_37" data-name="Path 37" d="M48.608,58.9a47.256,47.256,0,0,0,1.583,6.743,50.191,50.191,0,0,0,4.727,10.678A53.046,53.046,0,0,0,62.306,86c.655.689,1.361,1.317,2.055,1.96a48.369,48.369,0,0,0,3.854,3.218,51.88,51.88,0,0,0,4.946,3.275A48.337,48.337,0,0,0,81.4,98.292,50.746,50.746,0,0,0,87.17,100q2.363.545,4.762.864a37,37,0,0,0,5.412.37c1.894-.03,3.785.057,5.679-.152.8-.087,1.609-.138,2.406-.251a51.734,51.734,0,0,0,7.1-1.487A50.7,50.7,0,0,0,133.57,87.274c1.064-1.023,2.1-2.068,3.07-3.19,1.119-1.285,2.183-2.606,3.174-3.987A51.039,51.039,0,0,0,145.7,69.339a47.152,47.152,0,0,0,2.114-6.6,52.239,52.239,0,0,0,1.246-7.41c.136-1.5.152-2.988.262-4.5.053-.752-.087-1.5-.1-2.252a44.7,44.7,0,0,0-.508-5.564A50.744,50.744,0,0,0,109.817,1.173c-1.466-.336-2.946-.591-4.429-.8-1.188-.163-2.383-.28-3.576-.345C100.758-.027,99.7.017,98.636.017a46.689,46.689,0,0,0-4.675.126c-1.161.129-2.33.23-3.477.427a56.327,56.327,0,0,0-5.624,1.243,51.1,51.1,0,0,0-8.124,3.059,49.523,49.523,0,0,0-7.89,4.7,51.617,51.617,0,0,0-5.8,4.909c-.689.689-1.356,1.4-2.018,2.117a45.32,45.32,0,0,0-2.93,3.539A50.833,50.833,0,0,0,51,33.153a50.024,50.024,0,0,0-2.988,14.339,45.772,45.772,0,0,0,.08,7.1C48.231,56.032,48.392,57.468,48.608,58.9ZM69.382,25.856q14.444-7.961,28.9-15.908c1.009-.556.65-.572,1.629,0Q113.862,18.2,127.8,26.456c.965.572.809.278.809,1.418V60.316c0,1.135.159.841-.83,1.39q-14.35,7.986-28.689,15.952c-.8.444-.6.476-1.411,0q-7.368-4.367-14.736-8.722c-.919-.549-.715-.591-1.31.294q-6.205,9.218-12.411,18.446c-.168.251-.342.494-.515.74l-.161-.062v-61.1C68.557,26.134,68.371,26.412,69.382,25.856Z" transform="translate(-36.905 -0.001)" fill="#079307"/>
      <path id="Path_38" data-name="Path 38" d="M142.965,530.589c-.8-.108-1.6-.23-2.4-.276-.887-.057-1.777-.085-2.666-.165-1.662-.152-3.33-.253-5-.347-1.085-.06-2.17-.06-3.254-.154-1.135-.1-2.278-.076-3.42-.159-1.524-.115-3.059-.073-4.6-.186s-3-.023-4.507-.147c-1.609-.136-3.231.018-4.838-.186-3.594.016-7.187-.092-10.779-.175-.892-.021-1.786,0-2.677-.016-1.641-.014-3.284-.087-4.925-.113-2.811-.044-5.621-.087-8.437.076-2.779.161-5.569,0-8.352.177-2.222.133-4.454-.023-6.681.161-1.579.131-3.172.053-4.757.161-1.777.124-3.562.018-5.343.179-1.218.108-2.445.092-3.677.149-1.7.078-3.392.191-5.091.2-1.45,0-2.887.246-4.339.2-.083,0-.165.018-.248.023-1.22.092-2.441.191-3.663.269-.666.041-1.347-.025-2,.08-1.02.161-2.052.154-3.075.255s-1.94.409-2.949.409a1.019,1.019,0,0,0,.393.085c.671.037,1.331-.108,2-.133,1.809-.076,3.617-.035,5.426-.191,1.469-.126,2.946-.044,4.422-.17,1.609-.136,3.218-.055,4.84-.17,2.025-.145,4.061-.069,6.095-.152,4.284-.175,8.579.071,12.87-.2H89.145c5.939,0,11.875-.048,17.811-.021s11.87-.124,17.8.156c2.142.1,4.286.044,6.435.135s4.282.23,6.435.23a2.6,2.6,0,0,1,.5.021c1.292.248,2.609.126,3.907.262a23.8,23.8,0,0,0,3.666.211.749.749,0,0,1,.248.025,5.506,5.506,0,0,0,1.737.1c-.993-.159-1.974-.326-2.967-.446C144.128,530.679,143.544,530.665,142.965,530.589Z" transform="translate(-27.183 -407.135)" fill="#079307"/>
      <path id="Path_39" data-name="Path 39" d="M129.721,487.784a2.74,2.74,0,0,0,.9-.057c.069-.246.133-.46.186-.673l1.521-6.074a2.145,2.145,0,0,1,.1-.319c.034-.08,0-.23.23-.2.818,2.4,1.551,4.845,2.392,7.331h2.9c.384,0,.418-.03.517-.4.262-1,.515-1.995.774-2.988l1.379-5.334c.06-.23,0-.322-.23-.331a6.519,6.519,0,0,0-.669,0c-.329.023-.731-.145-.963.1a2.012,2.012,0,0,0-.283.855q-.738,2.912-1.469,5.831c-.034.133-.064.271-.11.4-.014.041-.071.074-.115.1s-.092,0-.115-.071c-.064-.184-.136-.365-.2-.549l-1.868-5.8c-.067-.211-.133-.425-.209-.634a.313.313,0,0,0-.315-.23h-2.822a.276.276,0,0,0-.3.23c-.032.136-.083.267-.117.4q-1.014,3.921-2.022,7.844a.645.645,0,0,0,0,.588C129.108,487.786,129.413,487.8,129.721,487.784Z" transform="translate(-99.158 -368.683)" fill="#fefffe"/>
      <path id="Path_40" data-name="Path 40" d="M50.809,483.109a5.033,5.033,0,0,0,.765-2.779,1.317,1.317,0,0,0-.986-1.3,4.336,4.336,0,0,0-1.4-.209h-5.1c-.425,0-.432,0-.549.46q-.919,3.516-1.823,7.035c-.124.483-.244.968-.4,1.574h1.687a.306.306,0,0,0,.306-.23c.041-.131.069-.269.1-.4.175-.676.345-1.349.526-2.022.085-.319.149-.377.46-.377h2.675a2.282,2.282,0,0,1,.416.041.767.767,0,0,1,.671.97c-.041.246-.14.483-.186.729a4.8,4.8,0,0,0-.251,1.273c.526.034,1.053.016,1.574.014.365,0,.37-.012.48-.421.138-.51.276-1.02.4-1.535.253-1.06.03-1.443-1.071-1.816.264-.09.5-.159.724-.248A1.914,1.914,0,0,0,50.809,483.109Zm-1.4-1.88a6.6,6.6,0,0,1-.172.816,1.609,1.609,0,0,1-1.462,1.289,28.4,28.4,0,0,1-3.259-.048,1.715,1.715,0,0,1,.028-.324c.186-.756.372-1.512.572-2.266.085-.324.145-.372.46-.375.947,0,1.894,0,2.841.012a2,2,0,0,1,.333.025A.687.687,0,0,1,49.41,481.229Z" transform="translate(-31.827 -368.774)" fill="#fefffe"/>
      <path id="Path_41" data-name="Path 41" d="M454.611,478.8H449.6a2.526,2.526,0,0,0-.416.023.358.358,0,0,0-.313.23,3.043,3.043,0,0,0-.133.393q-.991,3.8-1.972,7.6a1.208,1.208,0,0,0-.085.726.89.89,0,0,0,.57.1h5.18a5.63,5.63,0,0,0,1.317-.2,3.013,3.013,0,0,0,1.859-1.321,8.486,8.486,0,0,0,1.149-2.583c.145-.538.248-1.085.4-1.62a4.459,4.459,0,0,0,.142-1.4,1.7,1.7,0,0,0-1.209-1.714A4.046,4.046,0,0,0,454.611,478.8Zm.515,2.843a15.038,15.038,0,0,1-.735,2.988,2.212,2.212,0,0,1-2.448,1.71h-2.5c-.292,0-.386-.142-.329-.439.037-.191.09-.379.14-.568q.565-2.176,1.133-4.367c.037-.133.062-.271.1-.4a.421.421,0,0,1,.418-.342,17.137,17.137,0,0,1,3.328.108C455.02,480.5,455.25,480.827,455.125,481.643Z" transform="translate(-344 -368.758)" fill="#079307"/>
      <path id="Path_42" data-name="Path 42" d="M401.435,487.847c.193.018.388.025.584.028h2.351c.864,0,1.728.016,2.59,0a3.751,3.751,0,0,0,3.56-2.181,16.586,16.586,0,0,0,1.333-4.551,1.9,1.9,0,0,0-1.28-2.107,4.249,4.249,0,0,0-1.561-.23H404.5c-1.17,0-1.048-.126-1.347,1-.641,2.42-1.257,4.849-1.88,7.276a2.355,2.355,0,0,0-.073.492A.255.255,0,0,0,401.435,487.847Zm2.165-1.9.46-1.864q.407-1.579.823-3.153c.035-.133.081-.264.122-.4a.363.363,0,0,1,.356-.3,18.049,18.049,0,0,1,3.417.11,1.226,1.226,0,0,1,.538.209.938.938,0,0,1,.349.97c-.085.492-.2.981-.312,1.469a11.671,11.671,0,0,1-.618,1.99,2.129,2.129,0,0,1-2.025,1.356c-.473.028-.949,0-1.423,0h-1.42C403.623,486.33,403.538,486.2,403.6,485.946Z" transform="translate(-308.996 -368.762)" fill="#079307"/>
      <path id="Path_43" data-name="Path 43" d="M96.466,480.488a1.643,1.643,0,0,0-1.379-1.887,11.834,11.834,0,0,0-4.721-.108,3.1,3.1,0,0,0-2.342,1.7,9.424,9.424,0,0,0-.625,1.361c-.31.979-.575,1.974-.832,2.969a3.884,3.884,0,0,0-.076,1.411,1.432,1.432,0,0,0,.961,1.269,4.745,4.745,0,0,0,.473.154,9.978,9.978,0,0,0,2.4.23,14.352,14.352,0,0,0,2.487-.23,3.04,3.04,0,0,0,2.1-1.51,6.479,6.479,0,0,0,.646-1.441c.276-.961.54-1.926.786-2.9A4.644,4.644,0,0,0,96.466,480.488Zm-2.087.483a2.7,2.7,0,0,1-.087.575c-.248.938-.508,1.873-.768,2.808-.037.133-.1.26-.145.391a1.839,1.839,0,0,1-1.609,1.266,7.049,7.049,0,0,1-2.484,0,.759.759,0,0,1-.71-.869,4.162,4.162,0,0,1,.133-.9c.209-.862.416-1.726.669-2.576.46-1.524.919-1.7,2.3-1.839a6.412,6.412,0,0,1,.664,0v-.039a10.225,10.225,0,0,1,1.149.1c.712.117.926.421.894,1.087Z" transform="translate(-66.592 -368.38)" fill="#fefffe"/>
      <path id="Path_44" data-name="Path 44" d="M181.187,487.275a5.6,5.6,0,0,0,1.062.207c.526.051,1.055.06,1.471.083a15.774,15.774,0,0,0,2.6-.246,3.084,3.084,0,0,0,2.094-1.508,7.335,7.335,0,0,0,.689-1.609q.361-1.241.671-2.5a5.516,5.516,0,0,0,.191-1.319,1.6,1.6,0,0,0-1.393-1.786,11.358,11.358,0,0,0-4.64-.126,3.145,3.145,0,0,0-2.418,1.721,9.53,9.53,0,0,0-.588,1.287q-.46,1.379-.809,2.8a4.436,4.436,0,0,0-.17,1.4A1.6,1.6,0,0,0,181.187,487.275Zm.972-2.8c.248-1,.512-1.988.777-2.988a3.8,3.8,0,0,1,.168-.46,1.71,1.71,0,0,1,1.413-1.149,9.138,9.138,0,0,1,1.324-.1,6.869,6.869,0,0,1,1.089.048.6.6,0,0,1,.154.034.931.931,0,0,1,.8,1.161,4.146,4.146,0,0,1-.071.411q-.354,1.581-.86,3.126a1.976,1.976,0,0,1-1.82,1.459,7.334,7.334,0,0,1-2.319-.032c-.533-.113-.706-.317-.71-.857a2.633,2.633,0,0,1,.06-.65Z" transform="translate(-138.593 -368.371)" fill="#fefffe"/>
      <path id="Path_45" data-name="Path 45" d="M229.774,481.07a9.283,9.283,0,0,0,1.7,0,1.324,1.324,0,0,0,.248-.717c.131-1.163-.246-1.659-1.409-1.813a16.643,16.643,0,0,0-4.24,0,2.758,2.758,0,0,0-1.944,1.016,3.907,3.907,0,0,0-.814,2.661,1.1,1.1,0,0,0,.919,1.128,7.191,7.191,0,0,0,1.149.209c.749.069,1.5.1,2.248.152a4.95,4.95,0,0,1,.825.11.552.552,0,0,1,.434.545,1.636,1.636,0,0,1-1.434,1.827,3.011,3.011,0,0,1-.5.034h-1.588a2.383,2.383,0,0,1-.5-.039.756.756,0,0,1-.641-.843c0-.191.124-.372.048-.6a3.276,3.276,0,0,0-.974-.06q-.333,0-.669.014a.258.258,0,0,0-.241.2,3.652,3.652,0,0,0-.177,1.317,1.219,1.219,0,0,0,1.076,1.2,8.487,8.487,0,0,0,1.149.161c1.085.074,2.17.032,3.254,0a4.493,4.493,0,0,0,1.149-.211,2.3,2.3,0,0,0,1.358-1.041,5.485,5.485,0,0,0,.752-2.108,2.232,2.232,0,0,0-.055-.827,1.08,1.08,0,0,0-.756-.818,5.761,5.761,0,0,0-.814-.177,15.64,15.64,0,0,0-2.5-.175,3.012,3.012,0,0,1-1.069-.154.584.584,0,0,1-.414-.565,1.5,1.5,0,0,1,1.331-1.629,8.734,8.734,0,0,1,1.751-.069,4.945,4.945,0,0,1,.662.08.657.657,0,0,1,.6.69C229.719,480.721,229.634,480.893,229.774,481.07Z" transform="translate(-171.145 -368.456)" fill="#fefffe"/>
      <path id="Path_46" data-name="Path 46" d="M360.429,487.285a8.078,8.078,0,0,0,2.9.2,4.626,4.626,0,0,1,.666-.048,6.087,6.087,0,0,0,1.319-.191,2.988,2.988,0,0,0,2.112-1.609,9,9,0,0,0,.747-1.855c.184-.671.388-1.338.542-2.016a5.612,5.612,0,0,0,.23-1.565,1.632,1.632,0,0,0-1.276-1.65c-.214-.067-.432-.108-.65-.154a12.656,12.656,0,0,0-2.827-.17,8.123,8.123,0,0,0-1.726.278,2.965,2.965,0,0,0-1.891,1.407,7.222,7.222,0,0,0-.476.88,22.49,22.49,0,0,0-1.149,3.836,2.872,2.872,0,0,0-.051.51C358.871,486.5,359.243,487.027,360.429,487.285Zm.7-2.988c.23-.97.519-1.928.758-2.9a1.993,1.993,0,0,1,2.025-1.639c.581-.03,1.167-.023,1.749,0a1.793,1.793,0,0,1,.561.138.756.756,0,0,1,.54.758,3.541,3.541,0,0,1-.067.827c-.23.919-.492,1.82-.747,2.728-.053.186-.131.365-.2.547a1.731,1.731,0,0,1-1.5,1.149l-1.319.161a6.2,6.2,0,0,1-1.239-.175.653.653,0,0,1-.607-.689,3.254,3.254,0,0,1,.051-.915Z" transform="translate(-276.416 -368.302)" fill="#079307"/>
      <path id="Path_47" data-name="Path 47" d="M500.518,478.4c-.3-.039-.6-.092-.919-.115a14.436,14.436,0,0,0-3.829.147,2.459,2.459,0,0,0-1.259.623,3.671,3.671,0,0,0-1.1,3.275.986.986,0,0,0,.729.837c.133.041.269.074.4.1a14,14,0,0,0,2.733.3,8.922,8.922,0,0,1,1.082.06.6.6,0,0,1,.538.46,1.57,1.57,0,0,1-1.133,1.855,8.28,8.28,0,0,1-2.661.078c-.556-.044-.781-.329-.717-.919.069-.639-.175-.664-.662-.66-.306,0-.614,0-.919.025a.379.379,0,0,0-.363.3,4.523,4.523,0,0,0-.182,1.066,1.306,1.306,0,0,0,1.122,1.439,5.91,5.91,0,0,0,1.239.166h1.505v-.014c.611,0,1.227.03,1.839,0a2.808,2.808,0,0,0,2.032-.846,4.415,4.415,0,0,0,1.078-2.758,1.312,1.312,0,0,0-1.2-1.537,8.994,8.994,0,0,0-1.737-.218c-.446,0-.892-.011-1.338-.014a2.58,2.58,0,0,1-.977-.2.568.568,0,0,1-.368-.515,1.5,1.5,0,0,1,1.379-1.6,19.206,19.206,0,0,1,2.089-.012c.607.025.738.184.825.821.06.427.094.46.508.483.2.011.391,0,.586,0,.818,0,.837-.025.963-.807a.153.153,0,0,1,.016-.083A1.343,1.343,0,0,0,500.518,478.4Z" transform="translate(-379.13 -368.313)" fill="#079307"/>
      <path id="Path_48" data-name="Path 48" d="M324.309,481.356h.919c1.308-.025,1.071.218,1.294-1.149a1.5,1.5,0,0,0-1.393-1.885,12.409,12.409,0,0,0-3.328-.057,8.339,8.339,0,0,0-1.96.384,3.068,3.068,0,0,0-1.705,1.393,4.87,4.87,0,0,0-.556,1.3q-.416,1.659-.791,3.328a3.144,3.144,0,0,0-.044.832,1.719,1.719,0,0,0,1.347,1.7,3.539,3.539,0,0,0,.735.149,22.784,22.784,0,0,0,3.337-.028,6.787,6.787,0,0,0,1.223-.253,2.942,2.942,0,0,0,2.195-2.721.193.193,0,0,0-.179-.23c-.388-.016-.779-.016-1.17-.014-.517,0-.54,0-.669.508a1.5,1.5,0,0,1-1.464,1.25,13.651,13.651,0,0,1-2.167,0,2.437,2.437,0,0,1-.568-.138.639.639,0,0,1-.46-.625,4.138,4.138,0,0,1,.067-.919c.142-.689.306-1.358.49-2.029a14.11,14.11,0,0,1,.476-1.42,1.285,1.285,0,0,1,.876-.839,7.276,7.276,0,0,1,3.149-.064c.368.078.5.283.471.671C324.411,480.76,324.36,481,324.309,481.356Z" transform="translate(-243.946 -368.282)" fill="#fefffe"/>
      <path id="Path_49" data-name="Path 49" d="M9.146,483.517a5.654,5.654,0,0,0,.818-3.022,1.359,1.359,0,0,0-1.179-1.487,7.391,7.391,0,0,0-1.905-.2H2.621c-.322.016-.331.025-.437.377-.016.053-.032.106-.046.161q-1.037,4-2.068,7.991a.6.6,0,0,0,.018.536H1.467c.393,0,.432-.025.526-.379.2-.724.377-1.455.57-2.179.083-.306.154-.368.46-.37H5.36a14,14,0,0,0,1.583-.083A2.884,2.884,0,0,0,9.146,483.517Zm-1.8-.678a1.1,1.1,0,0,1-.83.5,7.2,7.2,0,0,1-.919.078c-.689.011-1.393,0-2.089,0a.563.563,0,0,1-.427-.136c.23-.889.46-1.8.689-2.714a.382.382,0,0,1,.414-.326c.862.016,1.726.018,2.588.034a2.723,2.723,0,0,1,.577.078.607.607,0,0,1,.522.657,3.709,3.709,0,0,1-.524,1.829Z" transform="translate(-0.016 -368.762)" fill="#fefffe"/>
      <path id="Path_50" data-name="Path 50" d="M268.742,487.813a11.821,11.821,0,0,0,2,0c.23-.894.46-1.781.689-2.668.386-1.482.765-2.965,1.149-4.447.1-.384.12-.393.5-.4h2.342c.14,0,.29,0,.347-.17a6.282,6.282,0,0,0,.336-1.333h-7.072c-1.262,0-.938-.175-1.285,1.016a.565.565,0,0,0,0,.446c.919.115,1.859-.034,2.845.092-.255,1.278-.637,2.5-.935,3.735S268.988,486.526,268.742,487.813Z" transform="translate(-206.18 -368.746)" fill="#fefffe"/>
      <path id="Path_51" data-name="Path 51" d="M300.485,487.682c.037-.129.069-.23.1-.342.63-2.42,1.266-4.84,1.882-7.265a2.867,2.867,0,0,0,.246-1.365,6.1,6.1,0,0,0-1.4-.067h-.251a.306.306,0,0,0-.3.23c-.039.133-.069.271-.1.4q-1.034,3.994-2.068,7.993a.5.5,0,0,0,.021.43A10.117,10.117,0,0,0,300.485,487.682Z" transform="translate(-229.932 -368.633)" fill="#fefffe"/>
      <path id="Path_52" data-name="Path 52" d="M137.693,119.445v.82l.161.062c.172-.246.347-.49.515-.74q6.205-9.221,12.411-18.446c.6-.885.382-.843,1.31-.294q7.37,4.353,14.736,8.722c.816.483.611.46,1.411,0q14.334-7.963,28.684-15.941c.988-.549.83-.255.83-1.39V59.8c0-1.149.156-.846-.809-1.418Q183,50.119,169.05,41.87c-.979-.577-.621-.561-1.629,0q-14.454,7.938-28.9,15.9c-1.011.556-.825.278-.825,1.379Q137.688,89.306,137.693,119.445Zm3.355-33.906V60.948a4.5,4.5,0,0,0,0-.584.776.776,0,0,1,.506-.843c2.894-1.609,5.778-3.245,8.667-4.87l17.257-9.708c.894-.5.609-.513,1.473,0q12.507,7.492,25.014,14.991a2.137,2.137,0,0,0,.285.172.777.777,0,0,1,.48.857c-.011,3.624,0,7.249,0,10.871v18.9c0,1,.138.749-.689,1.218q-12.916,7.281-25.846,14.55c-.772.434-.5.434-1.255-.014q-7.878-4.654-15.748-9.322c-.873-.517-.71-.57-1.241.276q-4.2,6.658-8.375,13.3c-.117.188-.172.563-.46.48-.184-.055-.069-.4-.069-.611Q141.043,98.083,141.048,85.539Z" transform="translate(-106.043 -31.919)" fill="#fefffe"/>
      <path id="Path_53" data-name="Path 53" d="M202.253,484.824a6.883,6.883,0,0,0-1.089-.048,9.145,9.145,0,0,0-1.324.1,9.15,9.15,0,0,1,1.324-.1A6.886,6.886,0,0,1,202.253,484.824Z" transform="translate(-153.916 -373.36)" fill="#2b2b2b"/>
      <path id="Path_54" data-name="Path 54" d="M152.3,121.7c.283.083.338-.292.46-.48q4.185-6.649,8.356-13.307c.531-.846.368-.793,1.241-.276q7.874,4.656,15.748,9.322c.758.448.483.448,1.255.014q12.928-7.267,25.846-14.55c.832-.46.689-.23.689-1.218V71.433a.781.781,0,0,0-.48-.857,2.137,2.137,0,0,1-.285-.172q-12.5-7.5-25-14.991c-.864-.517-.579-.508-1.473,0q-8.632,4.849-17.258,9.708c-2.889,1.625-5.773,3.257-8.667,4.87a.776.776,0,0,0-.506.843,4.484,4.484,0,0,1,0,.584V121.1C152.228,121.3,152.113,121.645,152.3,121.7Zm3.2-50.29q11.549-6.467,23.107-12.921c.935-.524.584-.538,1.549.037q11.234,6.681,22.461,13.38c.935.558.774.28.777,1.349V99.423a4.12,4.12,0,0,0,0,.584c.055.372-.145.552-.439.715q-3.068,1.7-6.127,3.415l-17.276,9.653c-.949.531-.669.524-1.556,0q-11.261-6.7-22.534-13.417c-.145-.087-.283-.182-.43-.26a.51.51,0,0,1-.317-.531c.016-.193,0-.388,0-.584V72.747C154.727,71.683,154.563,71.934,155.5,71.41Z" transform="translate(-117.218 -42.381)" fill="#079307"/>
      <path id="Path_55" data-name="Path 55" d="M163.189,109.284c0,.2.014.391,0,.584a.51.51,0,0,0,.317.531c.147.078.285.172.43.26q11.261,6.709,22.534,13.417c.887.529.607.535,1.556,0q8.644-4.826,17.276-9.653,3.061-1.712,6.127-3.415c.294-.163.494-.342.439-.715a4.114,4.114,0,0,1,0-.584V83.537c0-1.069.159-.791-.777-1.349q-11.225-6.7-22.461-13.38c-.965-.575-.614-.561-1.549-.037q-11.56,6.451-23.107,12.921c-.935.524-.772.273-.775,1.342Q163.185,96.159,163.189,109.284Zm12-21.029q3.528-1.99,7.065-3.96c1.675-.938,3.355-1.868,5.022-2.825a.722.722,0,0,1,.837.016q6.012,3.613,12.047,7.191a.919.919,0,0,1,.5.942q-.014,1.754-.011,3.509t0,3.512v6.6a4.543,4.543,0,0,0,0,.5.568.568,0,0,1-.4.646,4.033,4.033,0,0,0-.363.2l-11.875,6.665c-.119.069-.246.133-.361.209a.446.446,0,0,1-.542,0c-.14-.092-.287-.17-.43-.255l-11.622-6.927a4.014,4.014,0,0,0-.359-.216.5.5,0,0,1-.315-.531c.014-.168,0-.336,0-.5V89.579C174.388,88.515,174.221,88.8,175.188,88.255Z" transform="translate(-125.686 -52.663)" fill="#fefffe"/>
      <path id="Path_56" data-name="Path 56" d="M211.895,146.491c0,.168.011.336,0,.5a.5.5,0,0,0,.315.531c.124.06.23.145.359.216l11.622,6.927c.142.085.29.163.43.255a.446.446,0,0,0,.542,0c.115-.076.241-.14.361-.209l11.875-6.665a4.036,4.036,0,0,1,.363-.2.568.568,0,0,0,.4-.646,4.543,4.543,0,0,1,0-.5V136.588q0-1.758.011-3.509a.919.919,0,0,0-.5-.942q-6.035-3.571-12.047-7.191a.722.722,0,0,0-.837-.016c-1.666.956-3.346,1.887-5.022,2.825l-7.065,3.96c-.968.545-.8.269-.8,1.321Q211.885,139.762,211.895,146.491Z" transform="translate(-163.196 -96.12)" fill="#079307"/>
      <path id="Path_57" data-name="Path 57" d="M326.18,186.195v0Z" transform="translate(-251.22 -135.613)" fill="#079307"/>
    </g>
  </g>
</svg>
