<svg xmlns="http://www.w3.org/2000/svg" width="98.842" height="108.089" viewBox="0 0 98.842 108.089">
  <g id="Layer_2" data-name="Layer 2" transform="translate(-8.382 0.497)">
    <g id="Layer_1" data-name="Layer 1" transform="translate(8.882 0.001)">
      <path id="Path_37" data-name="Path 37" d="M48.584,56.823a45.592,45.592,0,0,0,1.528,6.506,48.423,48.423,0,0,0,4.561,10.3A51.177,51.177,0,0,0,61.8,82.967c.632.665,1.313,1.27,1.982,1.891a46.665,46.665,0,0,0,3.718,3.1,50.051,50.051,0,0,0,4.772,3.16,46.634,46.634,0,0,0,7.953,3.707,48.957,48.957,0,0,0,5.563,1.645q2.279.526,4.594.834a35.7,35.7,0,0,0,5.222.357c1.827-.029,3.652.055,5.479-.146.772-.084,1.552-.133,2.322-.242a49.911,49.911,0,0,0,6.854-1.435A48.913,48.913,0,0,0,130.552,84.2c1.027-.987,2.024-2,2.962-3.078,1.08-1.239,2.106-2.514,3.062-3.847A49.242,49.242,0,0,0,142.25,66.9a45.49,45.49,0,0,0,2.04-6.364,50.4,50.4,0,0,0,1.2-7.149c.131-1.446.146-2.882.253-4.339.051-.725-.084-1.45-.1-2.173a43.122,43.122,0,0,0-.49-5.368A48.956,48.956,0,0,0,107.636,1.131c-1.415-.324-2.843-.57-4.273-.769-1.146-.157-2.3-.271-3.45-.333C98.9-.026,97.872.016,96.849.016a45.044,45.044,0,0,0-4.51.122c-1.12.124-2.248.222-3.355.412a54.342,54.342,0,0,0-5.426,1.2A49.3,49.3,0,0,0,75.721,4.7a47.779,47.779,0,0,0-7.612,4.532,49.8,49.8,0,0,0-5.6,4.736c-.665.665-1.308,1.348-1.947,2.042a43.722,43.722,0,0,0-2.827,3.415,49.042,49.042,0,0,0-6.847,12.559,48.261,48.261,0,0,0-2.882,13.834,44.159,44.159,0,0,0,.078,6.849C48.22,54.058,48.375,55.444,48.584,56.823ZM68.626,24.945Q82.561,17.264,96.508,9.6c.973-.537.627-.552,1.572,0q13.459,7.96,26.909,15.927c.931.552.781.268.781,1.368v31.3c0,1.1.153.812-.8,1.341q-13.845,7.705-27.678,15.39c-.772.428-.574.459-1.361,0q-7.109-4.213-14.217-8.415c-.887-.53-.69-.57-1.264.284q-5.987,8.894-11.973,17.8c-.162.242-.33.477-.5.714l-.155-.06V26.291C67.83,25.213,67.65,25.482,68.626,24.945Z" transform="translate(-47.912 -0.001)" fill="#079307" stroke="#079307" stroke-width="1"/>
      <path id="Path_52" data-name="Path 52" d="M137.692,116.7v.792l.155.06c.166-.237.335-.472.5-.714q5.987-8.9,11.973-17.8c.574-.854.368-.814,1.264-.284q7.111,4.2,14.217,8.415c.787.466.59.443,1.361,0q13.829-7.683,27.674-15.379c.953-.53.8-.246.8-1.341V59.15c0-1.109.151-.816-.78-1.368q-13.45-7.969-26.909-15.927c-.945-.557-.6-.541-1.572,0Q152.428,49.514,138.49,57.2c-.976.537-.8.268-.8,1.33Q137.688,87.62,137.692,116.7Zm3.237-32.712V60.261a4.335,4.335,0,0,0,0-.563.748.748,0,0,1,.488-.814c2.792-1.552,5.574-3.131,8.361-4.7l16.65-9.366c.863-.486.588-.494,1.421,0q12.066,7.228,24.133,14.463a2.062,2.062,0,0,0,.275.166.75.75,0,0,1,.463.827c-.011,3.5,0,6.993,0,10.488V89c0,.962.133.723-.665,1.175Q179.594,97.2,167.12,104.212c-.745.419-.479.419-1.211-.013q-7.6-4.49-15.193-8.993c-.843-.5-.685-.55-1.2.266q-4.051,6.423-8.08,12.836c-.113.182-.166.543-.443.463-.177-.053-.067-.386-.067-.59Q140.925,96.088,140.929,83.986Z" transform="translate(-117.777 -32.255)" fill="#fefffe" stroke="#fff" stroke-width="0.5"/>
      <path id="Path_53" data-name="Path 53" d="M202.168,484.822a6.646,6.646,0,0,0-1.051-.047,8.84,8.84,0,0,0-1.277.1,8.84,8.84,0,0,1,1.277-.1A6.646,6.646,0,0,1,202.168,484.822Z" transform="translate(-166.153 -377.284)" fill="#2b2b2b"/>
      <path id="Path_54" data-name="Path 54" d="M152.294,119.351c.273.08.326-.282.443-.463q4.038-6.415,8.062-12.838c.512-.816.355-.765,1.2-.266q7.6,4.492,15.193,8.993c.732.432.466.432,1.211.013q12.472-7.011,24.936-14.038c.8-.443.665-.222.665-1.175V70.855a.754.754,0,0,0-.463-.827,2.064,2.064,0,0,1-.275-.166Q191.2,62.629,179.138,55.4c-.834-.5-.559-.49-1.421,0q-8.328,4.678-16.65,9.366c-2.787,1.568-5.57,3.142-8.361,4.7a.748.748,0,0,0-.488.814,4.324,4.324,0,0,1,0,.563v47.929C152.227,118.965,152.116,119.3,152.294,119.351Zm3.089-48.519q11.142-6.239,22.293-12.466c.9-.506.563-.519,1.494.035q10.838,6.446,21.669,12.909c.9.539.747.271.749,1.3V97.859a3.976,3.976,0,0,0,0,.563c.053.359-.14.532-.423.69q-2.96,1.639-5.911,3.295l-16.667,9.313c-.916.512-.645.506-1.5,0q-10.865-6.466-21.74-12.944c-.14-.084-.273-.175-.415-.251a.492.492,0,0,1-.306-.512c.016-.186,0-.375,0-.563V72.123C154.637,71.1,154.48,71.338,155.382,70.833Z" transform="translate(-129.07 -42.827)" fill="#079307"/>
      <path id="Path_55" data-name="Path 55" d="M163.189,107.843c0,.188.013.377,0,.563a.492.492,0,0,0,.306.512c.142.075.275.166.415.251q10.865,6.472,21.74,12.944c.856.51.585.517,1.5,0q8.339-4.656,16.667-9.313,2.953-1.652,5.911-3.295c.284-.157.477-.33.424-.69a3.969,3.969,0,0,1,0-.563V83c0-1.031.153-.763-.749-1.3q-10.829-6.461-21.669-12.909c-.931-.554-.592-.541-1.494-.035q-11.153,6.224-22.292,12.466c-.9.506-.745.264-.747,1.295Q163.185,95.18,163.189,107.843Zm11.576-20.288q3.4-1.92,6.816-3.82c1.616-.9,3.237-1.8,4.845-2.725a.7.7,0,0,1,.807.016q5.8,3.486,11.623,6.938a.887.887,0,0,1,.479.909q-.013,1.692-.011,3.386t0,3.388v6.37a4.388,4.388,0,0,0,0,.483.548.548,0,0,1-.386.623,3.893,3.893,0,0,0-.35.2l-11.457,6.43c-.115.067-.237.129-.348.2a.43.43,0,0,1-.523,0c-.135-.089-.277-.164-.415-.246l-11.213-6.683a3.878,3.878,0,0,0-.346-.208.479.479,0,0,1-.3-.512c.013-.162,0-.324,0-.486V88.832C173.994,87.806,173.832,88.081,174.765,87.555Z" transform="translate(-137.627 -53.216)" fill="#fefffe" stroke="#fff" stroke-width="0.5"/>
      <path id="Path_56" data-name="Path 56" d="M211.894,145.727c0,.162.011.324,0,.486a.479.479,0,0,0,.3.512c.12.058.222.14.346.208l11.213,6.683c.137.082.279.157.415.246a.43.43,0,0,0,.523,0c.111-.073.233-.135.348-.2l11.457-6.43a3.9,3.9,0,0,1,.35-.2.548.548,0,0,0,.386-.623,4.388,4.388,0,0,1,0-.483v-9.756q0-1.7.011-3.386a.887.887,0,0,0-.479-.909q-5.823-3.446-11.623-6.938a.7.7,0,0,0-.807-.016c-1.608.922-3.228,1.82-4.845,2.725l-6.816,3.82c-.933.525-.772.259-.772,1.275Q211.886,139.235,211.894,145.727Z" transform="translate(-175.532 -97.131)" fill="#079307"/>
      <path id="Path_57" data-name="Path 57" d="M326.18,185.838v0Z" transform="translate(-264.48 -137.038)" fill="#079307"/>
    </g>
  </g>
</svg>
